<svg width="22" height="23" viewBox="0 0 22 23" fill="none" xmlns="http://www.w3.org/2000/svg">
<path d="M1 11C1 9.89543 1.89543 9 3 9H5C6.10457 9 7 9.89543 7 11V20C7 21.1046 6.10457 22 5 22H3C1.89543 22 1 21.1046 1 20V11Z" stroke="url(#paint0_linear_8_6)" stroke-width="2" stroke-linecap="round" stroke-linejoin="round"/>
<path d="M7 11.9091C8 11.9091 12 8.8788 12 2.81818C12 0.393938 15 0.393939 15 2.81818C15 5.24242 15 6.45454 14 9.48485H20C20.5523 9.48485 21 9.93256 21 10.4848V14.8907C21 15.3161 20.8644 15.7304 20.6128 16.0734L17.5993 20.1827C17.2226 20.6965 16.6236 21 15.9865 21H9.38661C9.13784 21 8.89801 20.9073 8.71393 20.7399L7 19.1818" stroke="url(#paint1_linear_8_6)" stroke-width="2" stroke-linecap="round" stroke-linejoin="round"/>
<defs>
<linearGradient id="paint0_linear_8_6" x1="4" y1="9" x2="4" y2="22" gradientUnits="userSpaceOnUse">
<stop stop-color="#A75FEF"/>
<stop offset="0.458333" stop-color="#FF8DCB"/>
<stop offset="1" stop-color="#FEA8D6"/>
</linearGradient>
<linearGradient id="paint1_linear_8_6" x1="14" y1="1" x2="14" y2="21" gradientUnits="userSpaceOnUse">
<stop stop-color="#A75FEF"/>
<stop offset="0.458333" stop-color="#FF8DCB"/>
<stop offset="1" stop-color="#FEA8D6"/>
</linearGradient>
</defs>
</svg>
