<svg width="171" height="47" viewBox="0 0 171 47" fill="none" xmlns="http://www.w3.org/2000/svg">
<path d="M9.366 8.578V38.98H23.946L23.028 46H0.51V8.578H9.366ZM50.2942 37.684C50.2942 38.764 50.4382 39.556 50.7262 40.06C51.0502 40.564 51.5542 40.942 52.2382 41.194L50.4562 46.756C48.6922 46.612 47.2522 46.234 46.1362 45.622C45.0202 44.974 44.1562 43.966 43.5442 42.598C41.6722 45.478 38.7922 46.918 34.9042 46.918C32.0602 46.918 29.7922 46.09 28.1002 44.434C26.4082 42.778 25.5622 40.618 25.5622 37.954C25.5622 34.822 26.7142 32.428 29.0182 30.772C31.3222 29.116 34.6522 28.288 39.0082 28.288H41.9242V27.046C41.9242 25.354 41.5642 24.202 40.8442 23.59C40.1242 22.942 38.8642 22.618 37.0642 22.618C36.1282 22.618 34.9942 22.762 33.6622 23.05C32.3302 23.302 30.9622 23.662 29.5582 24.13L27.6142 18.514C29.4142 17.83 31.2502 17.308 33.1222 16.948C35.0302 16.588 36.7942 16.408 38.4142 16.408C42.5182 16.408 45.5242 17.254 47.4322 18.946C49.3402 20.638 50.2942 23.176 50.2942 26.56V37.684ZM37.3882 40.816C39.3322 40.816 40.8442 39.898 41.9242 38.062V32.986H39.8182C37.8742 32.986 36.4162 33.328 35.4442 34.012C34.5082 34.696 34.0402 35.758 34.0402 37.198C34.0402 38.35 34.3282 39.25 34.9042 39.898C35.5162 40.51 36.3442 40.816 37.3882 40.816ZM80.9772 17.326L71.9592 46H61.8612L52.6272 17.326H61.9152L66.9912 39.52L72.2832 17.326H80.9772ZM92.5167 17.326V46H83.9847V17.326H92.5167ZM92.1387 0.909998L95.4867 7.282L82.7427 12.412L80.3667 8.038L92.1387 0.909998ZM116.019 16.408C118.503 16.408 120.447 17.164 121.851 18.676C123.255 20.188 123.957 22.312 123.957 25.048V46H115.425V26.506C115.425 25.066 115.191 24.076 114.723 23.536C114.291 22.96 113.625 22.672 112.725 22.672C110.997 22.672 109.341 23.914 107.757 26.398V46H99.225V17.326H106.677L107.271 20.728C108.495 19.288 109.809 18.208 111.213 17.488C112.653 16.768 114.255 16.408 116.019 16.408ZM138.923 17.326V46H130.391V17.326H138.923ZM134.603 2.206C136.079 2.206 137.285 2.674 138.221 3.61C139.193 4.51 139.679 5.662 139.679 7.066C139.679 8.47 139.193 9.64 138.221 10.576C137.285 11.476 136.079 11.926 134.603 11.926C133.127 11.926 131.921 11.476 130.985 10.576C130.049 9.64 129.581 8.47 129.581 7.066C129.581 5.662 130.049 4.51 130.985 3.61C131.921 2.674 133.127 2.206 134.603 2.206ZM168.419 37.684C168.419 38.764 168.563 39.556 168.851 40.06C169.175 40.564 169.679 40.942 170.363 41.194L168.581 46.756C166.817 46.612 165.377 46.234 164.261 45.622C163.145 44.974 162.281 43.966 161.669 42.598C159.797 45.478 156.917 46.918 153.029 46.918C150.185 46.918 147.917 46.09 146.225 44.434C144.533 42.778 143.687 40.618 143.687 37.954C143.687 34.822 144.839 32.428 147.143 30.772C149.447 29.116 152.777 28.288 157.133 28.288H160.049V27.046C160.049 25.354 159.689 24.202 158.969 23.59C158.249 22.942 156.989 22.618 155.189 22.618C154.253 22.618 153.119 22.762 151.787 23.05C150.455 23.302 149.087 23.662 147.683 24.13L145.739 18.514C147.539 17.83 149.375 17.308 151.247 16.948C153.155 16.588 154.919 16.408 156.539 16.408C160.643 16.408 163.649 17.254 165.557 18.946C167.465 20.638 168.419 23.176 168.419 26.56V37.684ZM155.513 40.816C157.457 40.816 158.969 39.898 160.049 38.062V32.986H157.943C155.999 32.986 154.541 33.328 153.569 34.012C152.633 34.696 152.165 35.758 152.165 37.198C152.165 38.35 152.453 39.25 153.029 39.898C153.641 40.51 154.469 40.816 155.513 40.816Z" fill="#DE80B3"/>
</svg>
